<svg width="24" height="24" viewBox="0 0 24 24" fill="none" xmlns="http://www.w3.org/2000/svg">
<path fill-rule="evenodd" clip-rule="evenodd" d="M18.9998 3H5.00025C4.46975 3 3.96098 3.21074 3.58586 3.58586C3.21074 3.96098 3 4.46975 3 5.00025V18.9998C3 19.5302 3.21074 20.039 3.58586 20.4141C3.96098 20.7893 4.46975 21 5.00025 21H18.9998C19.5302 21 20.039 20.7893 20.4141 20.4141C20.7893 20.039 21 19.5302 21 18.9998V5.00025C21 4.46975 20.7893 3.96098 20.4141 3.58586C20.039 3.21074 19.5302 3 18.9998 3ZM4.5 5.00025C4.5 4.7235 4.7235 4.5 5.00025 4.5H12.9998V19.5H5.00025C4.93456 19.5 4.86951 19.4871 4.80881 19.4619C4.74812 19.4368 4.69297 19.3999 4.64652 19.3535C4.60007 19.307 4.56322 19.2519 4.53808 19.1912C4.51294 19.1305 4.5 19.0654 4.5 18.9998V5.00025ZM14.4998 9.99975V4.5H18.9998C19.2765 4.5 19.5 4.7235 19.5 5.00025V9.99975H14.4998ZM14.4998 11.4998V19.5H18.9998C19.0654 19.5 19.1305 19.4871 19.1912 19.4619C19.2519 19.4368 19.307 19.3999 19.3535 19.3535C19.3999 19.307 19.4368 19.2519 19.4619 19.1912C19.4871 19.1305 19.5 19.0654 19.5 18.9998V11.4998H14.4998Z" fill="white"/>
</svg>
