<svg width="25" height="24" viewBox="0 0 25 24" fill="none" xmlns="http://www.w3.org/2000/svg">
<path d="M7.00023 4.25L7.75023 3.5C8.14805 3.10218 8.68762 2.87868 9.25023 2.87868C9.81284 2.87868 10.3524 3.10218 10.7502 3.5C11.1481 3.89782 11.3715 4.43739 11.3715 5C11.3715 5.56261 11.1481 6.10218 10.7502 6.5L7.00023 10.25L3.25023 6.5C2.8524 6.10218 2.62891 5.56261 2.62891 5C2.62891 4.43739 2.8524 3.89782 3.25023 3.5C3.64805 3.10218 4.18762 2.87868 4.75023 2.87868C5.31284 2.87868 5.8524 3.10218 6.25023 3.5L7.00023 4.25ZM14.0002 10.25L18.0002 2.75L22.0002 10.25H14.0002ZM3.25023 13.75H10.7502V21.25H3.25023V13.75ZM18.0002 13.5C16.9394 13.5 15.9219 13.9214 15.1718 14.6716C14.4217 15.4217 14.0002 16.4391 14.0002 17.5C14.0002 18.5609 14.4217 19.5783 15.1718 20.3284C15.9219 21.0786 16.9394 21.5 18.0002 21.5C19.0611 21.5 20.0785 21.0786 20.8287 20.3284C21.5788 19.5783 22.0002 18.5609 22.0002 17.5C22.0002 16.4391 21.5788 15.4217 20.8287 14.6716C20.0785 13.9214 19.0611 13.5 18.0002 13.5Z" stroke="white" stroke-width="1.5" stroke-linejoin="round"/>
</svg>
