<svg width="22" height="20" viewBox="0 0 22 20" fill="none" xmlns="http://www.w3.org/2000/svg">
<path d="M5.5 14L4 19H1L1.88566 5.71504C1.95649 4.65269 2.58507 3.70746 3.53738 3.23131L8 1C9.41747 2.59466 12.5825 2.59466 14 1L18.4626 3.23131C19.4149 3.70746 20.0435 4.65269 20.1143 5.71504L21 19H18L16.5 14" stroke="white" stroke-width="1.5" stroke-linecap="round" stroke-linejoin="round"/>
<path d="M5 7L6 17L7 19H15L16 17L17 7" stroke="white" stroke-width="1.5" stroke-linecap="round" stroke-linejoin="round"/>
<path d="M7.5 1.5C7.5 1.5 7.5 5.37324 10.2949 6.73146C10.6964 6.92661 11 7.30782 11 7.7543V19" stroke="white" stroke-width="1.5" stroke-linecap="round" stroke-linejoin="round"/>
<path d="M14.5 1.5C14.5 1.5 14.5 6 11 7" stroke="white" stroke-width="1.5" stroke-linecap="round" stroke-linejoin="round"/>
</svg>
