<svg width="24" height="24" viewBox="0 0 24 24" fill="none" xmlns="http://www.w3.org/2000/svg">
<path d="M4.02985 21.0298C3.88767 21.1623 3.69963 21.2344 3.50532 21.231C3.31102 21.2276 3.12564 21.1489 2.98822 21.0115C2.85081 20.8741 2.7721 20.6887 2.76867 20.4944C2.76524 20.3001 2.83737 20.112 2.96985 19.9698L19.9698 2.96985C20.112 2.83737 20.3001 2.76524 20.4944 2.76867C20.6887 2.7721 20.8741 2.85081 21.0115 2.98822C21.1489 3.12564 21.2276 3.31102 21.231 3.50532C21.2344 3.69963 21.1623 3.88767 21.0298 4.02985L4.02985 21.0298ZM8.52985 21.5298C8.38767 21.6623 8.19963 21.7344 8.00532 21.731C7.81102 21.7276 7.62564 21.6489 7.48822 21.5115C7.35081 21.3741 7.2721 21.1887 7.26867 20.9944C7.26524 20.8001 7.33737 20.612 7.46985 20.4698L20.4698 7.46985C20.612 7.33737 20.8001 7.26524 20.9944 7.26867C21.1887 7.2721 21.3741 7.35081 21.5115 7.48822C21.6489 7.62564 21.7276 7.81102 21.731 8.00532C21.7344 8.19963 21.6623 8.38767 21.5298 8.52985L8.52985 21.5298ZM13.5298 21.5298C13.3877 21.6623 13.1996 21.7344 13.0053 21.731C12.811 21.7276 12.6256 21.6489 12.4882 21.5115C12.3508 21.3741 12.2721 21.1887 12.2687 20.9944C12.2652 20.8001 12.3374 20.612 12.4698 20.4698L20.4698 12.4698C20.612 12.3374 20.8001 12.2652 20.9944 12.2687C21.1887 12.2721 21.3741 12.3508 21.5115 12.4882C21.6489 12.6256 21.7276 12.811 21.731 13.0053C21.7344 13.1996 21.6623 13.3877 21.5298 13.5298L13.5298 21.5298ZM19.0298 21.0298C18.8877 21.1623 18.6996 21.2344 18.5053 21.231C18.311 21.2276 18.1256 21.1489 17.9882 21.0115C17.8508 20.8741 17.7721 20.6887 17.7687 20.4944C17.7652 20.3001 17.8374 20.112 17.9698 19.9698L19.9698 17.9698C20.112 17.8374 20.3001 17.7652 20.4944 17.7687C20.6887 17.7721 20.8741 17.8508 21.0115 17.9882C21.1489 18.1256 21.2276 18.311 21.231 18.5053C21.2344 18.6996 21.1623 18.8877 21.0298 19.0298L19.0298 21.0298ZM3.52985 16.5298C3.38767 16.6623 3.19963 16.7344 3.00532 16.731C2.81102 16.7276 2.62564 16.6489 2.48822 16.5115C2.35081 16.3741 2.2721 16.1887 2.26867 15.9944C2.26524 15.8001 2.33737 15.612 2.46985 15.4698L15.4698 2.46985C15.612 2.33737 15.8001 2.26524 15.9944 2.26867C16.1887 2.2721 16.3741 2.35081 16.5115 2.48822C16.6489 2.62564 16.7276 2.81102 16.731 3.00532C16.7344 3.19963 16.6623 3.38767 16.5298 3.52985L3.52985 16.5298ZM3.52985 11.5298C3.38767 11.6623 3.19963 11.7345 3.00532 11.731C2.81102 11.7276 2.62564 11.6489 2.48822 11.5115C2.35081 11.3741 2.2721 11.1887 2.26867 10.9944C2.26524 10.8001 2.33737 10.612 2.46985 10.4698L10.4698 2.46985C10.612 2.33737 10.8001 2.26524 10.9944 2.26867C11.1887 2.2721 11.3741 2.35081 11.5115 2.48822C11.6489 2.62564 11.7276 2.81102 11.731 3.00532C11.7345 3.19963 11.6623 3.38767 11.5298 3.52985L3.52985 11.5298ZM4.02985 6.02985C3.88767 6.16233 3.69963 6.23445 3.50532 6.23102C3.31102 6.22759 3.12564 6.14888 2.98822 6.01147C2.85081 5.87406 2.7721 5.68867 2.76867 5.49437C2.76524 5.30007 2.83737 5.11202 2.96985 4.96985L4.96985 2.96985C5.11202 2.83737 5.30007 2.76524 5.49437 2.76867C5.68867 2.7721 5.87406 2.85081 6.01147 2.98822C6.14888 3.12564 6.22759 3.31102 6.23102 3.50532C6.23445 3.69963 6.16233 3.88767 6.02985 4.02985L4.02985 6.02985Z" fill="white"/>
</svg>
