<svg width="21" height="20" viewBox="0 0 21 20" fill="none" xmlns="http://www.w3.org/2000/svg">
<g clip-path="url(#clip0_135_2260)">
<path d="M13.9467 3.93311C13.7026 3.68896 13.3071 3.68896 13.063 3.93311L0.562995 16.4331C0.318846 16.6772 0.318846 17.0727 0.562995 17.3168L3.06299 19.8168C3.18505 19.9389 3.34498 19.9999 3.5049 19.9999C3.66483 19.9999 3.82472 19.9389 3.94681 19.8168L16.4467 7.31689C16.6909 7.07274 16.6909 6.67726 16.4467 6.43311L13.9467 3.93311ZM3.50486 18.4912L1.88868 16.875L10.3799 8.38381L11.9961 10C11.9961 9.99999 3.50486 18.4912 3.50486 18.4912ZM12.8799 9.11621L11.2636 7.49999L13.5048 5.2588L15.121 6.87502L12.8799 9.11621Z" fill="white"/>
<path d="M9.12988 5C9.75489 3.75002 10.3799 3.12501 11.6299 2.5C10.3799 1.87499 9.75489 1.25002 9.12988 0C8.50487 1.24998 7.87982 1.87499 6.62988 2.5C7.8799 3.12501 8.50487 3.75002 9.12988 5Z" fill="white"/>
<path d="M19.1299 8.75C18.8174 9.37501 18.5048 9.68749 17.8799 9.99998C18.5049 10.3125 18.8174 10.625 19.1299 11.25C19.4423 10.6249 19.7549 10.3125 20.3798 9.99998C19.7549 9.68749 19.4424 9.37497 19.1299 8.75Z" fill="white"/>
<path d="M19.1299 1.87499C18.1924 1.40622 17.7236 0.937495 17.2549 0C16.7861 0.937495 16.3173 1.40626 15.3799 1.87499C16.3174 2.34376 16.7861 2.81248 17.2549 3.74998C17.7236 2.81248 18.1924 2.34372 19.1299 1.87499Z" fill="white"/>
</g>
<defs>
<clipPath id="clip0_135_2260">
<rect width="20" height="20" fill="white" transform="translate(0.379883)"/>
</clipPath>
</defs>
</svg>
