<svg width="17" height="16" viewBox="0 0 17 16" fill="none" xmlns="http://www.w3.org/2000/svg">
<path fill-rule="evenodd" clip-rule="evenodd" d="M14.5 1.5H9.25V14C9.25 14.28 9.47 14.5 9.75 14.5H11.75C11.9489 14.5 12.1397 14.579 12.2803 14.7197C12.421 14.8603 12.5 15.0511 12.5 15.25C12.5 15.4489 12.421 15.6397 12.2803 15.7803C12.1397 15.921 11.9489 16 11.75 16H5.25C5.05109 16 4.86032 15.921 4.71967 15.7803C4.57902 15.6397 4.5 15.4489 4.5 15.25C4.5 15.0511 4.57902 14.8603 4.71967 14.7197C4.86032 14.579 5.05109 14.5 5.25 14.5H7.25C7.38261 14.5 7.50979 14.4473 7.60355 14.3536C7.69732 14.2598 7.75 14.1326 7.75 14V1.5H2.5C2.36739 1.5 2.24021 1.55268 2.14645 1.64645C2.05268 1.74021 2 1.86739 2 2V3.25C2 3.44891 1.92098 3.63968 1.78033 3.78033C1.63968 3.92098 1.44891 4 1.25 4C1.05109 4 0.860322 3.92098 0.71967 3.78033C0.579018 3.63968 0.5 3.44891 0.5 3.25V1.5C0.5 0.67 1.17 0 2 0H15C15.83 0 16.5 0.67 16.5 1.5V3.25C16.5 3.44891 16.421 3.63968 16.2803 3.78033C16.1397 3.92098 15.9489 4 15.75 4C15.5511 4 15.3603 3.92098 15.2197 3.78033C15.079 3.63968 15 3.44891 15 3.25V2C15 1.86739 14.9473 1.74021 14.8536 1.64645C14.7598 1.55268 14.6326 1.5 14.5 1.5Z" fill="white"/>
</svg>
