<svg width="18" height="18" viewBox="0 0 18 18" fill="none" xmlns="http://www.w3.org/2000/svg">
<path fill-rule="evenodd" clip-rule="evenodd" d="M16.4972 10.5C16.9656 11.71 16.7372 12.4344 16.5553 12.7616C16.8894 13.455 17.125 15.1053 17.125 15.5625C17.125 17.44 16.9725 17.5856 16.8906 17.6638C16.6372 17.9047 16.2256 17.6041 16.4016 17.2863C16.4188 17.2275 16.5 16.8816 16.5 15.5625C16.5 15.0388 16.2394 13.5741 16.0231 13.0828C14.1965 13.3102 13.5279 13.7048 12.905 14.0726C12.5072 14.3074 12.128 14.5312 11.4778 14.6935C10.4981 15.2791 9.75313 15.935 9.31188 16.5975V17.4375C9.31188 17.8513 8.68687 17.851 8.68687 17.4375V16.5972C8.24562 15.9347 7.50062 15.2788 6.52094 14.6931C5.78097 14.5087 5.39065 14.2521 5.10765 14.066C4.97868 13.9812 4.87201 13.9111 4.76469 13.8691C4.68156 13.8366 4.5625 13.775 4.42063 13.6925C3.585 13.3881 2.74469 13.1785 1.97594 13.0828C1.76062 13.5741 1.5 15.0388 1.5 15.5625C1.5 16.8816 1.58125 17.2275 1.59844 17.2863C1.77062 17.5969 1.36875 17.91 1.10938 17.6638C1.0275 17.5856 0.875 17.44 0.875 15.5625C0.875 15.1053 1.11062 13.455 1.44469 12.7616C1.26281 12.4347 1.03437 11.7103 1.50281 10.5C1.51828 9.51192 1.8719 8.98718 2.22708 8.46013C2.42457 8.16707 2.62254 7.8733 2.76312 7.49877C2.58094 7.17033 2.4375 6.73814 2.4375 6.18752C2.4375 5.4525 2.64976 5.01029 2.85111 4.5908C2.98252 4.31704 3.10928 4.05294 3.16937 3.72346C2.50781 2.89533 2.2475 1.75939 2.58312 0.482832C2.68906 0.0843945 3.29281 0.241582 3.1875 0.641895C2.66531 2.62939 3.97437 4.00002 4.67219 4.00002C6.08778 4.00002 6.66374 3.81979 7.19925 3.65222C7.65973 3.50812 8.0903 3.37339 8.99906 3.37064C9.90268 3.37339 10.3374 3.50823 10.8022 3.65238C11.3424 3.81991 11.9231 4.00002 13.3275 4.00002C13.9897 4.00002 15.3422 2.65846 14.8122 0.641895C14.7069 0.241582 15.3116 0.083457 15.4166 0.482832C15.7525 1.76064 15.4913 2.89596 14.8303 3.72346C14.8943 4.0739 15.0235 4.33547 15.1558 4.60332C15.3556 5.00783 15.5625 5.42665 15.5625 6.18752C15.5625 6.73783 15.4194 7.17002 15.2369 7.49846C15.3819 7.88527 15.5827 8.18061 15.7815 8.47294C16.1349 8.99257 16.4818 9.50267 16.4972 10.5ZM1.87344 11.4872C1.79281 12.0231 1.91219 12.3288 1.98719 12.4588C2.29656 12.495 2.61625 12.55 2.94281 12.6197C2.53156 12.2653 2.14406 11.8728 1.87344 11.4872ZM7.92125 14.9C8.35 15.2413 8.71469 15.5972 9 15.9606C9.28531 15.5972 9.65 15.2413 10.0787 14.9C9.36594 14.9519 8.59281 14.9488 7.92125 14.9ZM5.43761 13.5363C5.91011 13.8454 6.62424 14.3125 9 14.3125C11.3663 14.3125 12.0679 13.8573 12.5738 13.5292C12.7227 13.4325 12.8547 13.3469 13.0072 13.2872C13.5969 13.0566 15.875 11.3303 15.875 10.5625C15.875 9.7254 15.593 9.30899 15.2613 8.81921C15.1116 8.59812 14.9517 8.36208 14.8031 8.06565C14.3612 8.49565 13.6034 8.71377 13.0806 8.78846C12.6709 8.84721 12.5828 8.22815 12.9922 8.17002C14.1872 7.99939 14.9375 7.41377 14.9375 6.18752C14.9375 5.59206 14.7676 5.23871 14.5822 4.85327C14.4913 4.66423 14.3967 4.46747 14.3166 4.23065C13.9881 4.47971 13.6359 4.62502 13.3275 4.62502C11.8364 4.62502 11.218 4.4346 10.6614 4.26323C10.2105 4.12437 9.80014 3.99802 8.99906 3.99565C8.2104 3.99802 7.79434 4.12425 7.3369 4.26302C6.77186 4.43444 6.14369 4.62502 4.67219 4.62502C4.36406 4.62502 4.01219 4.47971 3.68344 4.23065C3.60385 4.46573 3.50961 4.66203 3.41892 4.85095C3.23329 5.23764 3.0625 5.59341 3.0625 6.18752C3.0625 7.30783 3.81469 7.77439 3.84688 7.79377C3.95938 7.86221 4.18156 7.97252 4.31781 7.98596C4.72719 8.02658 4.66938 8.64908 4.25563 8.60783C3.97625 8.58002 3.53312 8.39377 3.19656 8.06627C3.04835 8.36192 2.88875 8.59762 2.73917 8.81854C2.40747 9.30841 2.125 9.72558 2.125 10.5625C2.125 11.3303 4.40313 13.0566 4.99281 13.2875C5.15281 13.35 5.29094 13.4403 5.4375 13.5363L5.43761 13.5363ZM16.0131 12.4588C16.0884 12.3281 16.2078 12.0222 16.1269 11.4869C15.8559 11.8728 15.4688 12.2653 15.0572 12.62C15.3837 12.55 15.7038 12.495 16.0131 12.4588ZM9.3125 10.5625C9.3125 10.7782 9.17259 10.9531 9 10.9531C8.82741 10.9531 8.6875 10.7782 8.6875 10.5625C8.6875 10.3468 8.82741 10.1719 9 10.1719C9.17259 10.1719 9.3125 10.3468 9.3125 10.5625Z" fill="white"/>
<path d="M16.5553 12.7616L16.3805 12.6644L16.3301 12.755L16.3751 12.8484L16.5553 12.7616ZM16.4972 10.5L16.2972 10.5031L16.2978 10.5389L16.3107 10.5722L16.4972 10.5ZM16.8906 17.6638L17.0284 17.8087L17.0287 17.8085L16.8906 17.6638ZM16.4016 17.2863L16.5765 17.3831L16.5873 17.3637L16.5935 17.3424L16.4016 17.2863ZM16.0231 13.0828L16.2062 13.0023L16.1462 12.866L15.9984 12.8844L16.0231 13.0828ZM12.905 14.0726L12.8033 13.9003L12.905 14.0726ZM11.4778 14.6935L11.4294 14.4994L11.4006 14.5066L11.3752 14.5218L11.4778 14.6935ZM9.31188 16.5975L9.14542 16.4867L9.11188 16.537V16.5975H9.31188ZM8.68687 16.5972H8.88688V16.5367L8.85333 16.4863L8.68687 16.5972ZM6.52094 14.6931L6.62355 14.5215L6.59809 14.5063L6.5693 14.4991L6.52094 14.6931ZM5.10765 14.066L5.21754 13.8989H5.21753L5.10765 14.066ZM4.76469 13.8691L4.83753 13.6828L4.83752 13.6828L4.76469 13.8691ZM4.42063 13.6925L4.52116 13.5196L4.50579 13.5107L4.48908 13.5046L4.42063 13.6925ZM1.97594 13.0828L2.00063 12.8844L1.85263 12.866L1.79276 13.0025L1.97594 13.0828ZM1.59844 17.2863L1.40648 17.3424L1.41273 17.3638L1.42351 17.3832L1.59844 17.2863ZM1.10938 17.6638L0.971306 17.8085L0.971671 17.8088L1.10938 17.6638ZM1.44469 12.7616L1.62487 12.8484L1.66988 12.755L1.61946 12.6643L1.44469 12.7616ZM1.50281 10.5L1.68933 10.5722L1.70223 10.5389L1.70279 10.5031L1.50281 10.5ZM2.22708 8.46013L2.06122 8.34836H2.06122L2.22708 8.46013ZM2.76312 7.49877L2.95037 7.56906L2.98284 7.48255L2.93802 7.40175L2.76312 7.49877ZM2.85111 4.5908L2.67081 4.50425L2.85111 4.5908ZM3.16937 3.72346L3.36613 3.75934L3.38247 3.66977L3.32563 3.59863L3.16937 3.72346ZM2.58312 0.482832L2.38984 0.431441L2.3897 0.431978L2.58312 0.482832ZM3.1875 0.641895L2.99408 0.591011L2.99407 0.591072L3.1875 0.641895ZM7.19925 3.65222L7.25898 3.84309L7.19925 3.65222ZM8.99906 3.37064L8.99967 3.17064L8.99846 3.17065L8.99906 3.37064ZM10.8022 3.65238L10.743 3.8434L10.8022 3.65238ZM14.8122 0.641895L15.0056 0.591056L15.0056 0.591011L14.8122 0.641895ZM15.4166 0.482832L15.61 0.43198V0.431978L15.4166 0.482832ZM14.8303 3.72346L14.674 3.59864L14.6172 3.6698L14.6336 3.75938L14.8303 3.72346ZM15.1558 4.60332L15.3351 4.51474L15.1558 4.60332ZM15.2369 7.49846L15.0621 7.40131L15.0172 7.48212L15.0496 7.56867L15.2369 7.49846ZM15.7815 8.47294L15.6162 8.5854L15.7815 8.47294ZM1.98719 12.4588L1.81395 12.5587L1.86415 12.6457L1.96391 12.6574L1.98719 12.4588ZM1.87344 11.4872L2.03715 11.3723L1.75002 10.9632L1.67566 11.4575L1.87344 11.4872ZM2.94281 12.6197L2.90107 12.8153L3.07337 12.4682L2.94281 12.6197ZM9 15.9606L8.84268 16.0841L9 16.2845L9.15732 16.0841L9 15.9606ZM7.92125 14.9L7.93573 14.7005L7.29063 14.6537L7.7967 15.0565L7.92125 14.9ZM10.0787 14.9L10.2033 15.0565L10.7095 14.6536L10.0642 14.7005L10.0787 14.9ZM5.43761 13.5363L5.32768 13.7034L5.32813 13.7037L5.43761 13.5363ZM12.5738 13.5292L12.6826 13.697V13.697L12.5738 13.5292ZM13.0072 13.2872L12.9343 13.1009L12.9343 13.101L13.0072 13.2872ZM15.2613 8.81921L15.0957 8.93135L15.2613 8.81921ZM14.8031 8.06565L14.9819 7.97602L14.8595 7.73175L14.6636 7.92231L14.8031 8.06565ZM13.0806 8.78846L13.0523 8.59047L13.0522 8.59048L13.0806 8.78846ZM12.9922 8.17002L13.0203 8.36803L13.0205 8.36801L12.9922 8.17002ZM14.5822 4.85327L14.402 4.93995L14.5822 4.85327ZM14.3166 4.23065L14.506 4.16656L14.417 3.90346L14.1957 4.07128L14.3166 4.23065ZM10.6614 4.26323L10.6026 4.45437L10.6614 4.26323ZM8.99906 3.99565L8.99966 3.79564L8.99846 3.79565L8.99906 3.99565ZM7.3369 4.26302L7.27883 4.07164L7.3369 4.26302ZM3.68344 4.23065L3.80421 4.07123L3.583 3.90364L3.494 4.16651L3.68344 4.23065ZM3.41892 4.85095L3.59922 4.9375V4.9375L3.41892 4.85095ZM3.84688 7.79377L3.95082 7.6229L3.95002 7.62242L3.84688 7.79377ZM4.31781 7.98596L4.33756 7.78693L4.33744 7.78692L4.31781 7.98596ZM4.25563 8.60783L4.27547 8.40882L4.27544 8.40882L4.25563 8.60783ZM3.19656 8.06627L3.33604 7.92293L3.14022 7.73238L3.01777 7.97664L3.19656 8.06627ZM2.73917 8.81854L2.57356 8.70641H2.57356L2.73917 8.81854ZM4.99281 13.2875L4.91988 13.4737L4.92004 13.4738L4.99281 13.2875ZM5.4375 13.5363L5.54742 13.3692L5.54704 13.3689L5.4375 13.5363ZM16.1269 11.4869L16.3246 11.457L16.25 10.9634L15.9632 11.372L16.1269 11.4869ZM16.0131 12.4588L16.0364 12.6574L16.1362 12.6457L16.1864 12.5587L16.0131 12.4588ZM15.0572 12.62L14.9266 12.4685L15.0991 12.8156L15.0572 12.62ZM16.7301 12.8588C16.9426 12.4766 17.1723 11.6899 16.6837 10.4278L16.3107 10.5722C16.759 11.7302 16.5318 12.3922 16.3805 12.6644L16.7301 12.8588ZM17.325 15.5625C17.325 15.3155 17.2634 14.7744 17.1622 14.215C17.0614 13.6579 16.9154 13.0482 16.7355 12.6748L16.3751 12.8484C16.5293 13.1684 16.6681 13.7306 16.7686 14.2863C16.8688 14.8397 16.925 15.3523 16.925 15.5625H17.325ZM17.0287 17.8085C17.0572 17.7813 17.1015 17.738 17.1422 17.6528C17.1791 17.5756 17.2099 17.4714 17.2356 17.3218C17.287 17.0233 17.325 16.5034 17.325 15.5625H16.925C16.925 16.4991 16.8867 16.9908 16.8414 17.254C16.8188 17.3852 16.7961 17.4494 16.7814 17.4802C16.7705 17.503 16.765 17.5072 16.7526 17.5191L17.0287 17.8085ZM16.2266 17.1894C16.0833 17.4483 16.1848 17.7088 16.3648 17.8443C16.5419 17.9777 16.8193 18.0076 17.0284 17.8087L16.7528 17.5188C16.7263 17.544 16.7017 17.5509 16.6805 17.5511C16.6565 17.5514 16.6293 17.5428 16.6054 17.5248C16.5816 17.5068 16.5672 17.4842 16.5618 17.4633C16.5572 17.4453 16.5565 17.4193 16.5765 17.3831L16.2266 17.1894ZM16.3 15.5625C16.3 16.8805 16.2181 17.2012 16.2096 17.2301L16.5935 17.3424C16.6194 17.2538 16.7 16.8827 16.7 15.5625H16.3ZM15.8401 13.1634C15.9378 13.3854 16.0537 13.8534 16.1461 14.3472C16.238 14.8388 16.3 15.3204 16.3 15.5625H16.7C16.7 15.2809 16.6317 14.7683 16.5392 14.2737C16.4472 13.7815 16.3247 13.2715 16.2062 13.0023L15.8401 13.1634ZM13.0067 14.2448C13.3171 14.0616 13.6265 13.8792 14.0813 13.7129C14.5372 13.5462 15.1456 13.3936 16.0478 13.2813L15.9984 12.8844C15.0741 12.9994 14.4349 13.1578 13.944 13.3372C13.4522 13.517 13.1158 13.7159 12.8033 13.9003L13.0067 14.2448ZM11.5262 14.8875C12.2057 14.718 12.6054 14.4817 13.0067 14.2448L12.8033 13.9003C12.409 14.1331 12.0504 14.3445 11.4294 14.4994L11.5262 14.8875ZM9.47833 16.7084C9.89761 16.0789 10.6162 15.4415 11.5804 14.8651L11.3752 14.5218C10.3801 15.1166 9.60864 15.7912 9.14542 16.4867L9.47833 16.7084ZM9.51188 17.4375V16.5975H9.11188V17.4375H9.51188ZM8.48688 17.4375C8.48688 17.5957 8.5487 17.7288 8.6522 17.8201C8.75192 17.9081 8.87898 17.9477 8.99932 17.9477C9.11967 17.9477 9.24677 17.9082 9.34653 17.8202C9.45009 17.7288 9.51188 17.5957 9.51188 17.4375H9.11188C9.11188 17.4862 9.09554 17.5082 9.0819 17.5202C9.06448 17.5356 9.03533 17.5477 8.99942 17.5477C8.96352 17.5477 8.93433 17.5356 8.91686 17.5202C8.90318 17.5081 8.88688 17.4861 8.88688 17.4375H8.48688ZM8.48688 16.5972V17.4375H8.88688V16.5972H8.48688ZM6.41832 14.8648C7.38259 15.4412 8.10114 16.0786 8.52042 16.7081L8.85333 16.4863C8.39011 15.7908 7.61866 15.1163 6.62355 14.5215L6.41832 14.8648ZM4.99777 14.2331C5.28875 14.4244 5.70093 14.6949 6.47258 14.8872L6.5693 14.4991C5.86101 14.3226 5.49254 14.0797 5.21754 13.8989L4.99777 14.2331ZM4.69185 14.0553C4.77563 14.0881 4.86361 14.1449 4.99777 14.2331L5.21753 13.8989C5.09376 13.8175 4.96838 13.734 4.83753 13.6828L4.69185 14.0553ZM4.32009 13.8654C4.46406 13.9491 4.59391 14.0171 4.69186 14.0554L4.83752 13.6828C4.76921 13.6561 4.66094 13.6009 4.52116 13.5196L4.32009 13.8654ZM1.95125 13.2813C2.70303 13.3748 3.52863 13.5805 4.35217 13.8804L4.48908 13.5046C3.64137 13.1958 2.78635 12.9821 2.00063 12.8844L1.95125 13.2813ZM1.7 15.5625C1.7 15.3204 1.76203 14.8388 1.85383 14.3472C1.94604 13.8534 2.06174 13.3853 2.15912 13.1631L1.79276 13.0025C1.67482 13.2716 1.55255 13.7815 1.46062 14.2738C1.36828 14.7683 1.3 15.2809 1.3 15.5625H1.7ZM1.79039 17.2301C1.78193 17.2012 1.7 16.8805 1.7 15.5625H1.3C1.3 16.8827 1.38057 17.2538 1.40648 17.3424L1.79039 17.2301ZM0.971671 17.8088C1.39781 18.2134 2.05591 17.699 1.77336 17.1893L1.42351 17.3832C1.44217 17.4169 1.44215 17.4425 1.43725 17.4618C1.43165 17.484 1.41681 17.5075 1.39321 17.5258C1.36963 17.5441 1.34331 17.5525 1.3206 17.5524C1.30081 17.5522 1.27566 17.5459 1.24708 17.5187L0.971671 17.8088ZM0.675 15.5625C0.675 16.5034 0.712988 17.0233 0.764385 17.3218C0.790142 17.4714 0.820884 17.5756 0.857782 17.6528C0.898534 17.738 0.942823 17.7813 0.971306 17.8085L1.24744 17.5191C1.23499 17.5072 1.22951 17.503 1.21864 17.4802C1.20392 17.4494 1.18119 17.3852 1.15858 17.254C1.11326 16.9908 1.075 16.4991 1.075 15.5625H0.675ZM1.26451 12.6748C1.08462 13.0482 0.938557 13.6579 0.837765 14.215C0.736567 14.7744 0.675 15.3155 0.675 15.5625H1.075C1.075 15.3523 1.13125 14.8397 1.23138 14.2863C1.33191 13.7306 1.47069 13.1684 1.62487 12.8484L1.26451 12.6748ZM1.3163 10.4278C0.827729 11.6902 1.05742 12.4769 1.26992 12.8588L1.61946 12.6643C1.46821 12.3925 1.24102 11.7305 1.68933 10.5722L1.3163 10.4278ZM2.06122 8.34836C1.70119 8.88261 1.31925 9.44815 1.30284 10.4969L1.70279 10.5031C1.7173 9.5757 2.0426 9.09176 2.39293 8.5719L2.06122 8.34836ZM2.57588 7.42848C2.44466 7.77807 2.25976 8.05375 2.06122 8.34836L2.39293 8.5719C2.58937 8.2804 2.80041 7.96853 2.95037 7.56906L2.57588 7.42848ZM2.2375 6.18752C2.2375 6.77468 2.39088 7.24002 2.58823 7.59579L2.93802 7.40175C2.77099 7.10065 2.6375 6.70161 2.6375 6.18752H2.2375ZM2.67081 4.50425C2.46667 4.92954 2.2375 5.4056 2.2375 6.18752H2.6375C2.6375 5.49941 2.83284 5.09105 3.03142 4.67734L2.67081 4.50425ZM2.97262 3.68757C2.91799 3.98707 2.80317 4.2285 2.67081 4.50425L3.03142 4.67734C3.16187 4.40557 3.30056 4.11882 3.36613 3.75934L2.97262 3.68757ZM2.3897 0.431978C2.03934 1.76457 2.30891 2.96678 3.01311 3.84829L3.32563 3.59863C2.70672 2.82388 2.45566 1.75422 2.77655 0.533686L2.3897 0.431978ZM3.38092 0.692778C3.42115 0.53987 3.39542 0.395469 3.31851 0.280756C3.24442 0.170243 3.13152 0.099807 3.01518 0.0693512C2.89883 0.0388948 2.76605 0.0450069 2.64739 0.10453C2.52425 0.166296 2.43042 0.278814 2.38984 0.431441L2.77641 0.534223C2.7888 0.487631 2.81016 0.470384 2.82673 0.462071C2.84777 0.451516 2.87922 0.447238 2.91388 0.456313C2.94855 0.465388 2.97347 0.484405 2.98627 0.503502C2.99626 0.518398 3.00651 0.543763 2.99408 0.591011L3.38092 0.692778ZM4.67219 3.80002C4.55748 3.80002 4.38649 3.74041 4.1924 3.59482C4.00244 3.45232 3.80687 3.2393 3.64454 2.96454C3.32127 2.41738 3.134 1.63257 3.38093 0.692717L2.99407 0.591072C2.71881 1.63872 2.92498 2.53298 3.30015 3.168C3.48704 3.48433 3.71693 3.73819 3.95237 3.91479C4.18367 4.0883 4.43799 4.20002 4.67219 4.20002V3.80002ZM7.13952 3.46134C6.61874 3.62431 6.06321 3.80002 4.67219 3.80002V4.20002C6.11234 4.20002 6.70873 4.01527 7.25898 3.84309L7.13952 3.46134ZM8.99846 3.17065C8.06205 3.17347 7.61022 3.31405 7.13952 3.46134L7.25898 3.84309C7.70923 3.7022 8.11854 3.57331 8.99967 3.57064L8.99846 3.17065ZM10.8615 3.46136C10.3869 3.31416 9.93091 3.17348 8.99967 3.17065L8.99846 3.57064C9.87445 3.57331 10.288 3.7023 10.743 3.8434L10.8615 3.46136ZM13.3275 3.80002C11.9478 3.80002 11.3873 3.62445 10.8615 3.46136L10.743 3.8434C11.2974 4.01536 11.8985 4.20002 13.3275 4.20002V3.80002ZM14.6188 0.692733C14.8694 1.64631 14.6737 2.43045 14.3457 2.9738C14.1809 3.24682 13.9835 3.45762 13.7941 3.59837C13.5999 3.74271 13.4328 3.80002 13.3275 3.80002V4.20002C13.5533 4.20002 13.8036 4.08964 14.0327 3.91942C14.2665 3.74561 14.4983 3.49498 14.6881 3.18053C15.0694 2.54897 15.285 1.65404 15.0056 0.591056L14.6188 0.692733ZM15.61 0.431978C15.5698 0.279046 15.4761 0.166163 15.3528 0.104203C15.2341 0.0445138 15.1011 0.0384955 14.9848 0.0690268C14.8684 0.099559 14.7555 0.170078 14.6813 0.280582C14.6044 0.395294 14.5785 0.539755 14.6188 0.692778L15.0056 0.591011C14.9932 0.543878 15.0034 0.518456 15.0135 0.503413C15.0264 0.484161 15.0515 0.46505 15.0863 0.455934C15.121 0.446817 15.1524 0.451131 15.1732 0.461608C15.1895 0.469814 15.2108 0.48693 15.2231 0.533686L15.61 0.431978ZM14.9866 3.84827C15.6901 2.96745 15.9607 1.7659 15.61 0.43198L15.2231 0.533684C15.5443 1.75539 15.2924 2.82446 14.674 3.59864L14.9866 3.84827ZM15.3351 4.51474C15.2025 4.24618 15.0855 4.00731 15.0271 3.68753L14.6336 3.75938C14.7032 4.14049 14.8445 4.42476 14.9765 4.69189L15.3351 4.51474ZM15.7625 6.18752C15.7625 5.38006 15.5391 4.92773 15.3351 4.51474L14.9765 4.69189C15.1721 5.08792 15.3625 5.47324 15.3625 6.18752H15.7625ZM15.4117 7.5956C15.6095 7.23968 15.7625 6.77429 15.7625 6.18752H15.3625C15.3625 6.70137 15.2293 7.10036 15.0621 7.40131L15.4117 7.5956ZM15.9469 8.36047C15.7473 8.06696 15.5597 7.78978 15.4241 7.42824L15.0496 7.56867C15.2041 7.98075 15.4182 8.29425 15.6162 8.5854L15.9469 8.36047ZM16.6972 10.4969C16.6808 9.43922 16.306 8.88852 15.9469 8.36047L15.6162 8.5854C15.9638 9.09661 16.2827 9.56612 16.2972 10.5031L16.6972 10.4969ZM2.16042 12.3588C2.10895 12.2696 1.99705 12.0099 2.07121 11.517L1.67566 11.4575C1.58858 12.0363 1.71543 12.3879 1.81395 12.5587L2.16042 12.3588ZM2.98455 12.4241C2.65306 12.3534 2.32712 12.2972 2.01046 12.2601L1.96391 12.6574C2.266 12.6928 2.57944 12.7467 2.90107 12.8153L2.98455 12.4241ZM1.70973 11.6021C1.99354 12.0065 2.39453 12.4113 2.81226 12.7712L3.07337 12.4682C2.66859 12.1194 2.29458 11.7392 2.03715 11.3723L1.70973 11.6021ZM9.15732 15.8371C8.8604 15.4589 8.48389 15.0922 8.0458 14.7435L7.7967 15.0565C8.21611 15.3903 8.56897 15.7355 8.84268 16.0841L9.15732 15.8371ZM9.9542 14.7435C9.51611 15.0922 9.1396 15.4589 8.84268 15.8371L9.15732 16.0841C9.43103 15.7355 9.78389 15.3903 10.2033 15.0565L9.9542 14.7435ZM7.90677 15.0995C8.58767 15.1489 9.37049 15.1521 10.0933 15.0995L10.0642 14.7005C9.36138 14.7517 8.59795 14.7486 7.93573 14.7005L7.90677 15.0995ZM9 14.1125C7.82433 14.1125 7.07188 13.9968 6.56092 13.8483C6.05467 13.7011 5.77755 13.5197 5.54709 13.369L5.32813 13.7037C5.57017 13.862 5.88636 14.0687 6.44925 14.2324C7.00742 14.3947 7.79992 14.5125 9 14.5125V14.1125ZM12.4649 13.3614C12.2172 13.5221 11.9349 13.7052 11.4289 13.8518C10.9182 13.9997 10.1713 14.1125 9 14.1125V14.5125C10.195 14.5125 10.982 14.3977 11.5402 14.236C12.1031 14.0729 12.4245 13.8644 12.6826 13.697L12.4649 13.3614ZM12.9343 13.101C12.7597 13.1693 12.6109 13.2667 12.4649 13.3614L12.6826 13.697C12.8345 13.5984 12.9497 13.5245 13.0801 13.4734L12.9343 13.101ZM15.675 10.5625C15.675 10.6125 15.6552 10.69 15.5988 10.7978C15.5437 10.903 15.4611 11.0229 15.3548 11.1534C15.1422 11.4144 14.8484 11.7008 14.5314 11.975C14.2152 12.2485 13.8807 12.5056 13.5898 12.708C13.2937 12.914 13.0577 13.0527 12.9343 13.1009L13.08 13.4735C13.2515 13.4064 13.5214 13.2429 13.8183 13.0363C14.1204 12.8262 14.466 12.5605 14.7931 12.2776C15.1193 11.9954 15.4319 11.692 15.6649 11.4061C15.7813 11.2632 15.8813 11.1204 15.9531 10.9834C16.0236 10.8489 16.075 10.7045 16.075 10.5625H15.675ZM15.0957 8.93135C15.2632 9.17863 15.4048 9.38894 15.5078 9.63723C15.609 9.88128 15.675 10.1684 15.675 10.5625H16.075C16.075 10.1195 16 9.77987 15.8773 9.48399C15.7563 9.19235 15.5911 8.94957 15.4269 8.70706L15.0957 8.93135ZM14.6243 8.15528C14.7795 8.46479 14.9463 8.71066 15.0957 8.93135L15.4269 8.70706C15.2769 8.48557 15.124 8.25937 14.9819 7.97602L14.6243 8.15528ZM13.1089 8.98645C13.6437 8.91004 14.4542 8.68425 14.9426 8.20898L14.6636 7.92231C14.2683 8.30704 13.5631 8.5175 13.0523 8.59047L13.1089 8.98645ZM12.9641 7.97201C12.8074 7.99425 12.6844 8.0742 12.6085 8.1896C12.5355 8.30076 12.5143 8.43218 12.5313 8.55132C12.5483 8.67046 12.6054 8.79071 12.7067 8.87701C12.8118 8.9666 12.9524 9.0089 13.109 8.98643L13.0522 8.59048C13.004 8.59739 12.9799 8.58434 12.9661 8.57256C12.9484 8.5575 12.9323 8.53036 12.9273 8.49482C12.9222 8.45927 12.9301 8.42869 12.9428 8.40927C12.9528 8.39408 12.9723 8.37486 13.0203 8.36803L12.9641 7.97201ZM14.7375 6.18752C14.7375 6.75666 14.5652 7.15338 14.275 7.42982C13.9794 7.71144 13.5388 7.88994 12.9639 7.97203L13.0205 8.36801C13.6406 8.27947 14.1726 8.07985 14.5509 7.71943C14.9347 7.35385 15.1375 6.84463 15.1375 6.18752H14.7375ZM14.402 4.93995C14.5851 5.3207 14.7375 5.63967 14.7375 6.18752H15.1375C15.1375 5.54446 14.9501 5.15671 14.7624 4.76659L14.402 4.93995ZM14.1271 4.29473C14.2116 4.54459 14.3113 4.75151 14.402 4.93995L14.7624 4.76659C14.6712 4.57694 14.5817 4.39035 14.506 4.16656L14.1271 4.29473ZM13.3275 4.82502C13.6945 4.82502 14.0884 4.6547 14.4374 4.39001L14.1957 4.07128C13.8879 4.30471 13.5774 4.42502 13.3275 4.42502V4.82502ZM10.6026 4.45437C11.1735 4.63017 11.8121 4.82502 13.3275 4.82502V4.42502C11.8607 4.42502 11.2624 4.23903 10.7203 4.07209L10.6026 4.45437ZM8.99847 4.19564C9.77107 4.19794 10.1598 4.31803 10.6026 4.45437L10.7203 4.07209C10.2612 3.93071 9.82922 3.79811 8.99966 3.79565L8.99847 4.19564ZM7.39496 4.45441C7.84497 4.31789 8.23947 4.19794 8.99967 4.19564L8.99846 3.79565C8.18133 3.79811 7.74372 3.9306 7.27883 4.07164L7.39496 4.45441ZM4.67219 4.82502C6.16815 4.82502 6.81631 4.62996 7.39496 4.45441L7.27883 4.07164C6.72742 4.23893 6.11923 4.42502 4.67219 4.42502V4.82502ZM3.56266 4.39006C3.91191 4.65465 4.30543 4.82502 4.67219 4.82502V4.42502C4.42269 4.42502 4.11247 4.30476 3.80421 4.07123L3.56266 4.39006ZM3.59922 4.9375C3.6896 4.74923 3.7889 4.54282 3.87287 4.29478L3.494 4.16651C3.41879 4.38864 3.32962 4.57483 3.23862 4.7644L3.59922 4.9375ZM3.2625 6.18752C3.2625 5.64107 3.41572 5.31976 3.59922 4.9375L3.23862 4.7644C3.05086 5.15552 2.8625 5.54575 2.8625 6.18752H3.2625ZM3.95002 7.62242C3.9501 7.62246 3.93907 7.61581 3.91976 7.60209C3.90049 7.58841 3.87316 7.56781 3.84048 7.53996C3.77503 7.48417 3.6889 7.39989 3.60329 7.28439C3.43335 7.05515 3.2625 6.6994 3.2625 6.18752H2.8625C2.8625 7.41157 3.68728 7.93114 3.74373 7.96512L3.95002 7.62242ZM4.33744 7.78692C4.30207 7.78343 4.23638 7.76338 4.15344 7.72719C4.07522 7.69305 3.99954 7.65254 3.95082 7.6229L3.74293 7.96464C3.80671 8.00344 3.89837 8.0523 3.99344 8.09379C4.08378 8.13322 4.1973 8.17504 4.29818 8.18499L4.33744 7.78692ZM4.23578 8.80685C4.39344 8.82256 4.53228 8.7745 4.63365 8.68025C4.7313 8.58945 4.78292 8.46659 4.79447 8.3468C4.80602 8.22702 4.77883 8.09686 4.70127 7.98918C4.62077 7.87741 4.49477 7.80254 4.33756 7.78693L4.29806 8.18498C4.34554 8.18969 4.36583 8.20787 4.3767 8.22295C4.3905 8.24212 4.39976 8.27263 4.39631 8.3084C4.39287 8.34415 4.37804 8.37172 4.36127 8.38731C4.34822 8.39945 4.32469 8.41373 4.27547 8.40882L4.23578 8.80685ZM3.05708 8.20961C3.42284 8.56551 3.90709 8.77412 4.23581 8.80685L4.27544 8.40882C4.04541 8.38592 3.64341 8.22203 3.33604 7.92293L3.05708 8.20961ZM2.90477 8.93068C3.05408 8.71017 3.22058 8.46463 3.37535 8.1559L3.01777 7.97664C2.87611 8.25922 2.72342 8.48508 2.57356 8.70641L2.90477 8.93068ZM2.325 10.5625C2.325 10.1686 2.39109 9.88128 2.49243 9.63702C2.59553 9.38853 2.73732 9.17799 2.90477 8.93068L2.57356 8.70641C2.40932 8.94896 2.24403 9.19194 2.12297 9.48374C2.00015 9.77976 1.925 10.1195 1.925 10.5625H2.325ZM5.06574 13.1013C4.94233 13.053 4.70628 12.9142 4.41017 12.7081C4.1193 12.5057 3.78481 12.2486 3.46862 11.9751C3.15157 11.7008 2.85785 11.4144 2.64522 11.1534C2.53885 11.0229 2.45632 10.903 2.40121 10.7978C2.34477 10.69 2.325 10.6125 2.325 10.5625H1.925C1.925 10.7045 1.97643 10.8489 2.04687 10.9834C2.11865 11.1204 2.2187 11.2632 2.33512 11.4061C2.56807 11.692 2.88073 11.9954 3.20693 12.2776C3.53398 12.5605 3.87959 12.8262 4.18171 13.0365C4.4786 13.243 4.74845 13.4066 4.91988 13.4737L5.06574 13.1013ZM5.54704 13.3689C5.40312 13.2747 5.24806 13.1725 5.06558 13.1012L4.92004 13.4738C5.05757 13.5275 5.17876 13.6059 5.32796 13.7036L5.54704 13.3689ZM5.54753 13.3693L5.54742 13.3692L5.32758 13.7034L5.32769 13.7034L5.54753 13.3693ZM15.9291 11.5168C16.0035 12.009 15.8917 12.269 15.8399 12.3589L16.1864 12.5587C16.2852 12.3873 16.4121 12.0354 16.3246 11.457L15.9291 11.5168ZM15.1878 12.7715C15.6058 12.4112 16.0065 12.0065 16.2906 11.6018L15.9632 11.372C15.7054 11.7392 15.3317 12.1195 14.9266 12.4685L15.1878 12.7715ZM15.9899 12.2601C15.6732 12.2972 15.3469 12.3534 15.0153 12.4245L15.0991 12.8156C15.4206 12.7467 15.7343 12.6928 16.0364 12.6574L15.9899 12.2601ZM9 11.1531C9.32239 11.1531 9.5125 10.8447 9.5125 10.5625H9.1125C9.1125 10.6281 9.09105 10.681 9.0648 10.7138C9.03884 10.7462 9.01466 10.7531 9 10.7531V11.1531ZM8.4875 10.5625C8.4875 10.8447 8.67761 11.1531 9 11.1531V10.7531C8.98534 10.7531 8.96116 10.7462 8.9352 10.7138C8.90895 10.681 8.8875 10.6281 8.8875 10.5625H8.4875ZM9 9.97188C8.67761 9.97188 8.4875 10.2803 8.4875 10.5625H8.8875C8.8875 10.4969 8.90895 10.444 8.9352 10.4112C8.96116 10.3788 8.98534 10.3719 9 10.3719V9.97188ZM9.5125 10.5625C9.5125 10.2803 9.32239 9.97188 9 9.97188V10.3719C9.01466 10.3719 9.03884 10.3788 9.0648 10.4112C9.09105 10.444 9.1125 10.4969 9.1125 10.5625H9.5125Z" fill="white"/>
</svg>
