<svg width="16" height="18" viewBox="0 0 16 18" fill="none" xmlns="http://www.w3.org/2000/svg">
<path fill-rule="evenodd" clip-rule="evenodd" d="M14.1723 0.679991C14.1521 0.729585 12.1839 5.67679 14.1598 9.46127C16.2208 13.4083 15.7282 16.6465 15.1668 17.5963C15.1462 17.6321 15.1186 17.6634 15.0858 17.6884C15.053 17.7134 15.0155 17.7317 14.9756 17.7422C14.9356 17.7526 14.894 17.7551 14.8531 17.7494C14.8122 17.7436 14.7729 17.7299 14.7373 17.7089C14.7018 17.6879 14.6708 17.66 14.6461 17.627C14.6213 17.5939 14.6034 17.5563 14.5933 17.5162C14.5832 17.4762 14.5812 17.4346 14.5873 17.3937C14.5934 17.3529 14.6075 17.3137 14.6288 17.2783C15.0243 16.6093 15.3713 14.4603 14.436 11.6888C13.7699 11.8042 11.7116 12.3569 9.87494 14.9158C9.58337 15.3426 9.14244 15.6447 8.63913 15.7624V17.4373C8.63786 17.5194 8.60438 17.5976 8.54591 17.6552C8.48745 17.7128 8.40869 17.745 8.32664 17.745C8.24459 17.745 8.16582 17.7128 8.10736 17.6552C8.04889 17.5976 8.0154 17.5194 8.01413 17.4373V15.7608C7.50671 15.641 7.06355 15.3333 6.77388 14.8998C4.95257 12.3632 2.90336 11.8076 2.23007 11.6898C1.29516 14.4608 1.64216 16.6094 2.03757 17.2783C2.07808 17.3496 2.08899 17.4339 2.06792 17.5131C2.04685 17.5923 1.99551 17.6601 1.92495 17.7018C1.85439 17.7435 1.77026 17.7558 1.6907 17.7361C1.61114 17.7164 1.54252 17.6662 1.49963 17.5963C0.659441 16.2782 0.892707 12.3292 2.5066 9.46127C4.48535 5.67114 2.51423 0.729581 2.4941 0.680163C2.46439 0.6037 2.46592 0.518619 2.49838 0.443279C2.53084 0.367939 2.59162 0.308381 2.6676 0.277455C2.74358 0.246529 2.82868 0.246715 2.90452 0.277974C2.98037 0.309232 3.04088 0.369056 3.07301 0.444538C3.14854 0.630053 4.68579 4.48852 3.6821 8.15412C4.75989 8.57695 9.11646 10.058 12.9885 8.17099C11.9755 4.50035 13.5177 0.630344 13.5933 0.444572C13.6255 0.369121 13.6859 0.309319 13.7618 0.278063C13.8376 0.246807 13.9226 0.246603 13.9986 0.277494C14.0746 0.308384 14.1353 0.367895 14.1678 0.443191C14.2003 0.518486 14.2019 0.603534 14.1723 0.679991ZM8.91984 15.0013C9.10193 14.897 9.25315 14.7463 9.35813 14.5646C11.2502 11.9279 13.3467 11.2588 14.2184 11.0902C14.0866 10.7278 13.904 10.3575 13.7199 9.98391C13.5212 9.58086 13.3207 9.17403 13.18 8.76939C11.7648 9.42901 10.2199 9.76348 8.65866 9.74829C6.8905 9.73182 5.14 9.39476 3.49216 8.75346C3.35091 9.16354 3.14781 9.57558 2.94664 9.98371C2.7623 10.3577 2.57958 10.7284 2.44757 11.0913C3.32293 11.2616 5.41218 11.9319 7.29239 14.5514C7.39504 14.7345 7.54433 14.887 7.72508 14.9937C7.90582 15.1003 8.11158 15.1572 8.32143 15.1585C8.53129 15.1599 8.73775 15.1056 8.91984 15.0013ZM8.54714 7.65133C8.48854 7.70994 8.40905 7.74286 8.32617 7.74286C8.24329 7.74286 8.16381 7.70993 8.10521 7.65133C8.0466 7.59272 8.01368 7.51324 8.01367 7.43036V7.14868C8.01367 7.0658 8.0466 6.98632 8.1052 6.92771C8.16381 6.86911 8.24329 6.83618 8.32617 6.83618C8.40905 6.83618 8.48854 6.86911 8.54714 6.92771C8.60575 6.98632 8.63867 7.0658 8.63867 7.14868V7.43036C8.63867 7.51324 8.60575 7.59273 8.54714 7.65133Z" fill="white"/>
<path d="M14.1598 9.46127L13.9825 9.55383L13.9825 9.55385L14.1598 9.46127ZM14.1723 0.679991L14.3576 0.755214L14.3587 0.752303L14.1723 0.679991ZM15.1668 17.5963L14.9947 17.4946L14.9937 17.4962L15.1668 17.5963ZM15.0858 17.6884L14.9645 17.5293L14.9645 17.5293L15.0858 17.6884ZM14.9756 17.7422L14.9249 17.5487L14.9249 17.5487L14.9756 17.7422ZM14.7373 17.7089L14.8391 17.5367L14.8391 17.5367L14.7373 17.7089ZM14.5873 17.3937L14.7851 17.4233V17.4233L14.5873 17.3937ZM14.6288 17.2783L14.8 17.3817L14.801 17.3801L14.6288 17.2783ZM14.436 11.6888L14.6255 11.6249L14.5707 11.4625L14.4018 11.4917L14.436 11.6888ZM9.87494 14.9158L9.71241 14.7992L9.70979 14.803L9.87494 14.9158ZM8.63913 15.7624L8.59358 15.5676L8.43913 15.6038V15.7624H8.63913ZM8.63913 17.4373L8.83913 17.4404V17.4373H8.63913ZM8.54591 17.6552L8.40559 17.5127L8.40559 17.5127L8.54591 17.6552ZM8.32664 17.745L8.32664 17.945L8.32664 17.745ZM8.10736 17.6552L8.24767 17.5127L8.24767 17.5127L8.10736 17.6552ZM8.01413 17.4373H7.8141L7.81415 17.4405L8.01413 17.4373ZM8.01413 15.7608H8.21413V15.6025L8.0601 15.5662L8.01413 15.7608ZM6.77388 14.8998L6.94027 14.7886L6.93634 14.7832L6.77388 14.8998ZM2.23007 11.6898L2.26452 11.4928L2.09544 11.4632L2.04056 11.6259L2.23007 11.6898ZM2.03757 17.2783L2.21145 17.1795L2.20974 17.1766L2.03757 17.2783ZM2.06792 17.5131L1.87464 17.4617L1.87464 17.4617L2.06792 17.5131ZM1.92495 17.7018L1.82317 17.5296L1.82317 17.5296L1.92495 17.7018ZM1.49963 17.5963L1.67007 17.4917L1.66828 17.4888L1.49963 17.5963ZM2.5066 9.46127L2.68099 9.5594L2.6839 9.55383L2.5066 9.46127ZM2.4941 0.680163L2.30766 0.75262L2.30888 0.755605L2.4941 0.680163ZM2.49838 0.443279L2.68206 0.522412L2.68206 0.522412L2.49838 0.443279ZM2.6676 0.277455L2.743 0.462699L2.6676 0.277455ZM2.90452 0.277974L2.82831 0.462885V0.462885L2.90452 0.277974ZM3.07301 0.444538L3.25827 0.369111L3.25703 0.36621L3.07301 0.444538ZM3.6821 8.15412L3.4892 8.1013L3.44174 8.27466L3.60906 8.3403L3.6821 8.15412ZM12.9885 8.17099L13.0761 8.35078L13.2255 8.27798L13.1813 8.11778L12.9885 8.17099ZM13.5933 0.444572L13.4093 0.366217L13.4081 0.36915L13.5933 0.444572ZM13.7618 0.278063L13.838 0.462966L13.838 0.462966L13.7618 0.278063ZM13.9986 0.277494L13.9233 0.462761L13.9986 0.277494ZM14.1678 0.443191L14.3515 0.363963L14.3515 0.363961L14.1678 0.443191ZM9.35813 14.5646L9.19563 14.448L9.18988 14.456L9.18495 14.4645L9.35813 14.5646ZM8.91984 15.0013L8.82042 14.8278V14.8278L8.91984 15.0013ZM14.2184 11.0902L14.2564 11.2866L14.4864 11.2421L14.4063 11.0218L14.2184 11.0902ZM13.7199 9.98391L13.5405 10.0723V10.0723L13.7199 9.98391ZM13.18 8.76939L13.3689 8.70372L13.2962 8.49457L13.0955 8.58812L13.18 8.76939ZM8.65866 9.74829L8.66061 9.5483L8.66052 9.54829L8.65866 9.74829ZM3.49216 8.75346L3.56469 8.56708L3.37081 8.49163L3.30306 8.68833L3.49216 8.75346ZM2.94664 9.98371L3.12603 10.0721L2.94664 9.98371ZM2.44757 11.0913L2.25962 11.0229L2.17958 11.2429L2.40938 11.2876L2.44757 11.0913ZM7.29239 14.5514L7.46683 14.4536L7.46137 14.4439L7.45487 14.4348L7.29239 14.5514ZM7.72508 14.9937L7.62345 15.1659L7.62345 15.1659L7.72508 14.9937ZM8.32143 15.1585L8.32016 15.3585H8.32016L8.32143 15.1585ZM8.32617 7.74286L8.32616 7.94286H8.32617V7.74286ZM8.01367 7.43036H7.81367V7.43037L8.01367 7.43036ZM14.337 9.36871C13.3772 7.53029 13.3705 5.39663 13.6155 3.69861C13.7376 2.85215 13.9213 2.1204 14.0758 1.59744C14.1529 1.33609 14.2227 1.12725 14.2736 0.98273C14.299 0.910476 14.3197 0.85433 14.3342 0.81577C14.3415 0.79649 14.3472 0.781619 14.3512 0.771342C14.3532 0.766203 14.3548 0.762228 14.3559 0.759441C14.357 0.756504 14.3576 0.755169 14.3576 0.755205L13.9869 0.604777C13.9733 0.638376 13.4702 1.90395 13.2196 3.64149C12.9694 5.37559 12.9664 7.60777 13.9825 9.55383L14.337 9.36871ZM15.339 17.6981C15.6471 17.1768 15.9117 16.0858 15.8465 14.6437C15.7809 13.193 15.3811 11.3682 14.337 9.3687L13.9825 9.55385C14.9994 11.5013 15.3839 13.2691 15.4469 14.6618C15.5103 16.063 15.2479 17.0661 14.9947 17.4946L15.339 17.6981ZM15.207 17.8475C15.2609 17.8064 15.3061 17.7551 15.34 17.6965L14.9937 17.4962C14.9863 17.5091 14.9764 17.5203 14.9645 17.5293L15.207 17.8475ZM15.0262 17.9356C15.0917 17.9185 15.1532 17.8885 15.207 17.8474L14.9645 17.5293C14.9527 17.5383 14.9392 17.5449 14.9249 17.5487L15.0262 17.9356ZM14.8255 17.9474C14.8925 17.9568 14.9608 17.9528 15.0263 17.9356L14.9249 17.5487C14.9105 17.5525 14.8955 17.5533 14.8808 17.5513L14.8255 17.9474ZM14.6356 17.8811C14.6939 17.9155 14.7584 17.9381 14.8255 17.9474L14.8808 17.5513C14.8661 17.5492 14.8519 17.5443 14.8391 17.5367L14.6356 17.8811ZM14.4859 17.7467C14.5264 17.801 14.5773 17.8466 14.6356 17.8811L14.8391 17.5367C14.8263 17.5291 14.8151 17.5191 14.8062 17.5072L14.4859 17.7467ZM14.3994 17.5651C14.4159 17.6308 14.4453 17.6925 14.4859 17.7467L14.8062 17.5072C14.7973 17.4953 14.7909 17.4818 14.7873 17.4674L14.3994 17.5651ZM14.3895 17.3642C14.3795 17.4312 14.3828 17.4995 14.3994 17.5651L14.7873 17.4674C14.7836 17.4529 14.7829 17.438 14.7851 17.4233L14.3895 17.3642ZM14.4576 17.175C14.4226 17.2329 14.3994 17.2973 14.3895 17.3642L14.7851 17.4233C14.7873 17.4086 14.7924 17.3944 14.8 17.3817L14.4576 17.175ZM14.2465 11.7528C14.7068 13.1167 14.8503 14.3238 14.8315 15.268C14.8125 16.2204 14.629 16.8849 14.4566 17.1766L14.801 17.3801C15.024 17.0028 15.2118 16.2582 15.2314 15.276C15.2511 14.2855 15.1005 13.0324 14.6255 11.6249L14.2465 11.7528ZM10.0374 15.0324C11.8369 12.5253 13.8435 11.9945 14.4701 11.8859L14.4018 11.4917C13.6963 11.614 11.5863 12.1886 9.71246 14.7992L10.0374 15.0324ZM8.68467 15.9571C9.23669 15.828 9.72029 15.4968 10.0401 15.0286L9.70979 14.803C9.44644 15.1885 9.04818 15.4613 8.59358 15.5676L8.68467 15.9571ZM8.83913 17.4373V15.7624H8.43913V17.4373H8.83913ZM8.68624 17.7977C8.78212 17.7033 8.83702 17.575 8.8391 17.4404L8.43915 17.4342C8.4387 17.4638 8.42664 17.492 8.40559 17.5127L8.68624 17.7977ZM8.32664 17.945C8.4612 17.945 8.59036 17.8921 8.68624 17.7977L8.40559 17.5127C8.38453 17.5334 8.35618 17.545 8.32663 17.545L8.32664 17.945ZM7.96704 17.7977C8.06292 17.8921 8.19208 17.945 8.32664 17.945L8.32663 17.545C8.29709 17.545 8.26873 17.5334 8.24767 17.5127L7.96704 17.7977ZM7.81415 17.4405C7.81624 17.575 7.87115 17.7033 7.96704 17.7977L8.24767 17.5127C8.22662 17.492 8.21456 17.4638 8.2141 17.4342L7.81415 17.4405ZM7.81413 15.7608V17.4373H8.21413V15.7608H7.81413ZM6.60759 15.0109C6.92536 15.4865 7.41151 15.824 7.96816 15.9555L8.0601 15.5662C7.60191 15.4579 7.20174 15.1801 6.94018 14.7887L6.60759 15.0109ZM2.19561 11.8868C2.82979 11.9977 4.82726 12.5316 6.61143 15.0164L6.93634 14.7832C5.07787 12.1948 2.97693 11.6174 2.26452 11.4928L2.19561 11.8868ZM2.20974 17.1766C2.03736 16.8849 1.85392 16.2206 1.83491 15.2683C1.81606 14.3244 1.95947 13.1174 2.41957 11.7537L2.04056 11.6259C1.56575 13.0332 1.41521 14.286 1.43499 15.2763C1.4546 16.2584 1.64237 17.0028 1.8654 17.3801L2.20974 17.1766ZM2.2612 17.5645C2.29575 17.4346 2.27787 17.2963 2.21142 17.1795L1.86371 17.3772C1.8783 17.4028 1.88222 17.4332 1.87464 17.4617L2.2612 17.5645ZM2.02672 17.874C2.14244 17.8056 2.22665 17.6944 2.2612 17.5645L1.87464 17.4617C1.86705 17.4902 1.84857 17.5146 1.82317 17.5296L2.02672 17.874ZM1.64257 17.9302C1.77304 17.9626 1.91101 17.9424 2.02673 17.874L1.82317 17.5296C1.79777 17.5447 1.76748 17.5491 1.73884 17.542L1.64257 17.9302ZM1.3292 17.701C1.39955 17.8156 1.51209 17.8979 1.64257 17.9302L1.73884 17.542C1.7102 17.5349 1.68549 17.5168 1.67005 17.4917L1.3292 17.701ZM2.33231 9.36318C1.50949 10.8253 1.04116 12.5571 0.883879 14.0895C0.805172 14.8564 0.803833 15.5783 0.876945 16.1959C0.949562 16.8095 1.09762 17.3377 1.33097 17.7038L1.66828 17.4888C1.48154 17.1959 1.34369 16.7362 1.27417 16.1489C1.20515 15.5658 1.20547 14.874 1.28179 14.1304C1.43457 12.6418 1.88982 10.9651 2.6809 9.55935L2.33231 9.36318ZM2.30888 0.755605C2.30885 0.755534 2.30938 0.756841 2.31054 0.75978C2.31165 0.762557 2.31321 0.766522 2.31521 0.771652C2.31921 0.781909 2.32494 0.796757 2.33222 0.81601C2.34678 0.854516 2.36751 0.91059 2.39298 0.98276C2.44391 1.12712 2.51375 1.33573 2.59103 1.59683C2.74568 2.11932 2.92969 2.8505 3.05199 3.69656C3.29732 5.39375 3.2906 7.52744 2.32931 9.36871L2.6839 9.55383C3.70136 7.60497 3.69845 5.37281 3.44788 3.63934C3.19681 1.90248 2.69302 0.638324 2.67933 0.604721L2.30888 0.755605ZM2.3147 0.364146C2.26148 0.487696 2.25896 0.62722 2.30769 0.75261L2.68052 0.607715C2.66982 0.58018 2.67037 0.549542 2.68206 0.522412L2.3147 0.364146ZM2.5922 0.0922113C2.4676 0.142926 2.36793 0.240596 2.3147 0.364146L2.68206 0.522412C2.69375 0.495283 2.71564 0.473835 2.743 0.462699L2.5922 0.0922113ZM2.98073 0.0930621C2.85635 0.0418016 2.7168 0.0414959 2.5922 0.0922113L2.743 0.462699C2.77036 0.451562 2.801 0.451629 2.82831 0.462885L2.98073 0.0930621ZM3.25703 0.36621C3.20435 0.242428 3.10511 0.144323 2.98073 0.0930621L2.82831 0.462885C2.85563 0.474142 2.87742 0.495685 2.88899 0.522866L3.25703 0.36621ZM3.875 8.20693C4.38784 6.33398 4.25014 4.41967 3.97891 2.95781C3.70735 1.4942 3.29917 0.469642 3.25825 0.36912L2.88777 0.519955C2.92238 0.604949 3.32059 1.60238 3.58562 3.03078C3.85097 4.46093 3.98005 6.30865 3.4892 8.1013L3.875 8.20693ZM12.9009 7.9912C11.01 8.91268 8.9943 9.01465 7.30926 8.82992C5.62481 8.64525 4.28418 8.17548 3.75515 7.96793L3.60906 8.3403C4.15782 8.55559 5.53436 9.03773 7.26567 9.22754C8.99638 9.41727 11.095 9.31626 13.0761 8.35078L12.9009 7.9912ZM13.4081 0.36915C13.3671 0.469798 12.9577 1.49734 12.686 2.96455C12.4147 4.43 12.2781 6.34859 12.7957 8.2242L13.1813 8.11778C12.6859 6.32275 12.8139 4.47102 13.0793 3.03737C13.3444 1.60547 13.7439 0.605118 13.7786 0.519994L13.4081 0.36915ZM13.6855 0.0931597C13.5612 0.144417 13.462 0.24249 13.4093 0.366226L13.7773 0.522917C13.7889 0.495752 13.8107 0.47422 13.838 0.462966L13.6855 0.0931597ZM14.0739 0.092226C13.9494 0.0415667 13.8099 0.041902 13.6855 0.0931601L13.838 0.462966C13.8653 0.451713 13.8959 0.451639 13.9233 0.462761L14.0739 0.092226ZM14.3515 0.363961C14.2982 0.240479 14.1985 0.142885 14.0739 0.092226L13.9233 0.462761C13.9506 0.473883 13.9725 0.49531 13.9842 0.52242L14.3515 0.363961ZM14.3587 0.752303C14.4073 0.626917 14.4047 0.487443 14.3515 0.363963L13.9842 0.522418C13.9959 0.549529 13.9965 0.580151 13.9858 0.607679L14.3587 0.752303ZM9.18495 14.4645C9.09764 14.6157 8.97186 14.741 8.82042 14.8278L9.01927 15.1748C9.232 15.0529 9.40866 14.8769 9.5313 14.6646L9.18495 14.4645ZM14.1804 10.8938C13.2681 11.0703 11.1227 11.7625 9.19563 14.448L9.52062 14.6812C11.3777 12.0933 13.4253 11.4473 14.2564 11.2866L14.1804 10.8938ZM13.5405 10.0723C13.7257 10.4481 13.903 10.8084 14.0304 11.1586L14.4063 11.0218C14.2701 10.6473 14.0823 10.2669 13.8993 9.89549L13.5405 10.0723ZM12.9911 8.83507C13.1366 9.25348 13.343 9.67159 13.5405 10.0723L13.8993 9.89549C13.6995 9.49012 13.5048 9.09459 13.3689 8.70372L12.9911 8.83507ZM8.65671 9.94828C10.2478 9.96376 11.8223 9.6229 13.2645 8.95067L13.0955 8.58812C11.7074 9.23512 10.192 9.5632 8.66061 9.5483L8.65671 9.94828ZM3.41962 8.93985C5.09001 9.58991 6.86446 9.93159 8.6568 9.94828L8.66052 9.54829C6.91655 9.53205 5.18999 9.1996 3.56469 8.56708L3.41962 8.93985ZM3.12603 10.0721C3.32603 9.66638 3.53515 9.24277 3.68125 8.8186L3.30306 8.68833C3.16667 9.0843 2.96958 9.48479 2.76725 9.89529L3.12603 10.0721ZM2.63551 11.1597C2.76311 10.8089 2.94062 10.4483 3.12603 10.0721L2.76725 9.89529C2.58397 10.2671 2.39605 10.6479 2.25962 11.0229L2.63551 11.1597ZM7.45487 14.4348C5.53963 11.7665 3.40153 11.0731 2.48576 10.895L2.40938 11.2876C3.24432 11.45 5.28474 12.0973 7.12991 14.668L7.45487 14.4348ZM7.82671 14.8214C7.67638 14.7327 7.55221 14.6058 7.46683 14.4536L7.11795 14.6492C7.23788 14.8631 7.41229 15.0414 7.62345 15.1659L7.82671 14.8214ZM8.32271 14.9585C8.14817 14.9574 7.97703 14.9101 7.8267 14.8214L7.62345 15.1659C7.83461 15.2905 8.07499 15.357 8.32016 15.3585L8.32271 14.9585ZM8.82042 14.8278C8.66897 14.9145 8.49725 14.9596 8.32271 14.9585L8.32016 15.3585C8.56533 15.3601 8.80653 15.2967 9.01927 15.1748L8.82042 14.8278ZM8.32617 7.94286C8.46209 7.94286 8.59245 7.88886 8.68856 7.79275L8.40572 7.50991C8.38462 7.53101 8.35601 7.54286 8.32617 7.54286V7.94286ZM7.96378 7.79275C8.05989 7.88886 8.19024 7.94285 8.32616 7.94286L8.32618 7.54286C8.29634 7.54286 8.26773 7.531 8.24663 7.5099L7.96378 7.79275ZM7.81367 7.43037C7.81368 7.56629 7.86767 7.69664 7.96378 7.79275L8.24663 7.5099C8.22553 7.48881 8.21367 7.46019 8.21367 7.43035L7.81367 7.43037ZM7.81367 7.14868V7.43036H8.21367V7.14868H7.81367ZM7.96378 6.78629C7.86767 6.8824 7.81367 7.01276 7.81367 7.14868H8.21367C8.21367 7.11884 8.22552 7.09023 8.24662 7.06913L7.96378 6.78629ZM8.32617 6.63618C8.19025 6.63618 8.05989 6.69018 7.96378 6.78629L8.24662 7.06913C8.26772 7.04803 8.29633 7.03618 8.32617 7.03618V6.63618ZM8.68856 6.78629C8.59245 6.69018 8.46209 6.63618 8.32617 6.63618V7.03618C8.35601 7.03618 8.38462 7.04803 8.40572 7.06913L8.68856 6.78629ZM8.83867 7.14868C8.83867 7.01276 8.78468 6.8824 8.68856 6.78629L8.40572 7.06913C8.42682 7.09023 8.43867 7.11884 8.43867 7.14868H8.83867ZM8.83867 7.43036V7.14868H8.43867V7.43036H8.83867ZM8.68856 7.79275C8.78468 7.69664 8.83867 7.56628 8.83867 7.43036H8.43867C8.43867 7.4602 8.42682 7.48881 8.40572 7.50991L8.68856 7.79275Z" fill="white"/>
</svg>
