<svg width="24" height="24" viewBox="0 0 24 24" fill="none" xmlns="http://www.w3.org/2000/svg">
<path d="M19.9364 11.5897L19.1919 12.4028C18.8543 12.7716 18.667 13.2534 18.667 13.7534V18.6667C18.667 19.403 18.07 20 17.3337 20H6.66699C5.93062 20 5.33366 19.403 5.33366 18.6667V8C5.33366 7.26363 5.93062 6.66667 6.66699 6.66667H9.53468C10.7076 6.66667 11.309 5.26136 10.4993 4.41283C10.2477 4.14918 9.89912 4 9.53468 4H6.66699C4.45786 4 2.66699 5.79087 2.66699 8V18.6667C2.66699 20.8758 4.45786 22.6667 6.66699 22.6667H17.3337C19.5428 22.6667 21.3337 20.8758 21.3337 18.6667V12.2946C21.3337 11.8085 20.9562 11.4059 20.471 11.3746C20.2694 11.3616 20.0728 11.4407 19.9364 11.5897Z" fill="white"/>
<path d="M20.3051 1.32492C20.6355 0.964908 21.2331 1.244 21.1691 1.72849L20.7815 4.66398C20.7305 5.05026 20.8575 5.43884 21.1267 5.72049L23.1058 7.79108C23.4207 8.12045 23.1668 8.6649 22.7122 8.63553L19.8533 8.45086C19.4645 8.42576 19.0854 8.57828 18.8223 8.86558L16.8227 11.0495C16.4926 11.4099 15.8948 11.1316 15.9581 10.647L16.3425 7.70752C16.3929 7.32202 16.2661 6.93444 15.9977 6.65322L14.0211 4.58274C13.7067 4.25333 13.9604 3.70928 14.4149 3.73852L17.2709 3.92226C17.659 3.94722 18.0375 3.7952 18.3004 3.50873L20.3051 1.32492Z" fill="white"/>
<path d="M12.1745 11.2876C12.505 10.9276 13.1025 11.2067 13.0385 11.6911L12.9053 12.7002C12.8583 13.0561 12.9752 13.414 13.2233 13.6735L13.966 14.4506C14.2809 14.7799 14.027 15.3244 13.5724 15.295L12.4993 15.2257C12.1411 15.2026 11.7919 15.3431 11.5495 15.6077L10.8621 16.3585C10.5321 16.719 9.93418 16.4406 9.99754 15.9561L10.1298 14.9442C10.1763 14.5891 10.0595 14.232 9.8122 13.9729L9.06996 13.1954C8.75549 12.866 9.00925 12.322 9.46372 12.3512L10.5361 12.4202C10.8936 12.4432 11.2422 12.3031 11.4845 12.0392L12.1745 11.2876Z" fill="white"/>
</svg>
