<svg width="12" height="11" viewBox="0 0 12 11" fill="none" xmlns="http://www.w3.org/2000/svg">
<path d="M5.51 2.37001C5.01 3.77001 4.45 4.45001 3.94 4.50001C3.37 4.57001 2.87 4.32001 2.4 3.70001C2.3712 3.66244 2.33757 3.62882 2.3 3.60001C2.43516 3.4198 2.50552 3.19922 2.49966 2.97403C2.49381 2.74884 2.41209 2.53222 2.26775 2.35927C2.12341 2.18631 1.9249 2.06717 1.70439 2.02112C1.48387 1.97508 1.25427 2.00484 1.05279 2.10559C0.8513 2.20633 0.689731 2.37215 0.594256 2.57619C0.498782 2.78023 0.474996 3.01052 0.526752 3.22977C0.578508 3.44901 0.702775 3.64436 0.879418 3.78415C1.05606 3.92395 1.27473 4.00001 1.5 4.00001L1.51 4.12001L2.33 7.36001C2.41019 7.68439 2.59639 7.9727 2.85907 8.17922C3.12175 8.38574 3.44586 8.49864 3.78 8.50001H8.22C8.55414 8.49864 8.87825 8.38574 9.14093 8.17922C9.40361 7.9727 9.58981 7.68439 9.67 7.36001L10.49 4.12001C10.4978 4.08051 10.5012 4.04026 10.5 4.00001C10.7253 4.00001 10.9439 3.92395 11.1206 3.78415C11.2972 3.64436 11.4215 3.44901 11.4733 3.22977C11.525 3.01052 11.5012 2.78023 11.4057 2.57619C11.3103 2.37215 11.1487 2.20633 10.9472 2.10559C10.7457 2.00484 10.5161 1.97508 10.2956 2.02112C10.0751 2.06717 9.87659 2.18631 9.73225 2.35927C9.58791 2.53222 9.50619 2.74884 9.50034 2.97403C9.49449 3.19922 9.56484 3.4198 9.7 3.60001C9.66305 3.62573 9.62945 3.65596 9.6 3.69001C9.11 4.31001 8.6 4.56001 8.06 4.50001C7.56 4.45001 7.02 3.76001 6.49 2.37001C6.68276 2.26166 6.83416 2.09248 6.92054 1.88893C7.00692 1.68538 7.0234 1.45895 6.9674 1.24503C6.9114 1.03112 6.78608 0.841806 6.61104 0.706692C6.43601 0.571579 6.22112 0.498291 6 0.498291C5.77888 0.498291 5.564 0.571579 5.38896 0.706692C5.21392 0.841806 5.0886 1.03112 5.0326 1.24503C4.9766 1.45895 4.99308 1.68538 5.07946 1.88893C5.16584 2.09248 5.31725 2.26166 5.51 2.37001ZM9 9.25001C9.13261 9.25001 9.25979 9.30269 9.35355 9.39646C9.44732 9.49023 9.5 9.6174 9.5 9.75001C9.5 9.88262 9.44732 10.0098 9.35355 10.1036C9.25979 10.1973 9.13261 10.25 9 10.25H3C2.86739 10.25 2.74022 10.1973 2.64645 10.1036C2.55268 10.0098 2.5 9.88262 2.5 9.75001C2.5 9.6174 2.55268 9.49023 2.64645 9.39646C2.74022 9.30269 2.86739 9.25001 3 9.25001H9Z" fill="#FBBE28"/>
</svg>
