<svg width="20" height="21" viewBox="0 0 20 21" fill="none" xmlns="http://www.w3.org/2000/svg">
<path d="M17.2895 8.61906C15.1332 8.61906 16.427 6.0473 11.6832 6.0473C6.93945 6.0473 6.93945 2.19043 6.93945 2.19043" stroke="white" stroke-width="1.25" stroke-linecap="round" stroke-linejoin="round"/>
<path d="M3.05762 12.9046C3.92012 16.7619 6.07637 19.7083 9.95762 19.7083C13.8389 19.7083 15.9951 16.7619 16.8576 12.9046C16.8576 12.9046 18.5826 12.0474 18.5826 10.3333C18.5826 8.61914 17.2889 8.61914 17.2889 8.61914" stroke="white" stroke-width="1.25" stroke-linecap="round" stroke-linejoin="round"/>
<path d="M3.05801 12.9046C3.05801 12.9046 1.33301 12.0473 1.33301 10.3332C1.33301 8.61905 2.62676 8.61905 2.62676 8.61905C3.92051 8.61905 5.64551 6.47593 5.64551 5.19043" stroke="white" stroke-width="1.25" stroke-linecap="round" stroke-linejoin="round"/>
<path d="M15.1328 1.33325C15.1328 1.33325 18.1516 3.476 18.1516 6.476C18.1684 7.25285 18.0591 8.02728 17.8279 8.76913" stroke="white" stroke-width="1.25" stroke-linecap="round" stroke-linejoin="round"/>
<path d="M7.80176 15.4761C8.39345 16.0128 9.15934 16.3172 9.95801 16.3333C10.7567 16.3172 11.5226 16.0128 12.1143 15.4761" stroke="white" stroke-width="1.25" stroke-linecap="round" stroke-linejoin="round"/>
<path d="M12.1143 10.7619C12.5257 10.9232 12.9665 10.9962 13.408 10.976C13.6587 10.9763 13.906 10.9184 14.1305 10.8069C14.355 10.6954 14.5506 10.5332 14.7018 10.3333L15.133 10.5061" stroke="white" stroke-width="1.25" stroke-linecap="round" stroke-linejoin="round"/>
<path d="M7.80195 10.7619C7.3905 10.9232 6.9497 10.9962 6.5082 10.976C6.25752 10.9763 6.01018 10.9184 5.78568 10.8069C5.56117 10.6954 5.36563 10.5332 5.21445 10.3333L4.7832 10.5061" stroke="white" stroke-width="1.25" stroke-linecap="round" stroke-linejoin="round"/>
</svg>
