<svg width="342" height="273" viewBox="0 0 342 273" fill="none" xmlns="http://www.w3.org/2000/svg">
<g style="mix-blend-mode:luminosity">
<circle cx="177.968" cy="139.156" r="133.192" fill="#F1F3FF"/>
<circle cx="53.1246" cy="49.2235" r="8.34821" fill="#F1F3FF"/>
<circle cx="269.04" cy="16.2099" r="15.558" fill="#F1F3FF"/>
<circle cx="55.7815" cy="224.915" r="14.7991" fill="#F1F3FF"/>
<circle cx="320.648" cy="210.496" r="14.7991" fill="#F1F3FF"/>
<circle cx="291.808" cy="227.192" r="7.20982" fill="#F1F3FF"/>
<path d="M199.238 11.6844C198.798 11.5908 198.798 10.9629 199.238 10.8693L205.89 9.45463C206.051 9.42053 206.176 9.29558 206.211 9.13537L207.643 2.52973C207.738 2.09191 208.363 2.09191 208.458 2.52973L209.89 9.13537C209.925 9.29558 210.05 9.42053 210.211 9.45463L216.863 10.8693C217.303 10.9629 217.303 11.5908 216.863 11.6844L210.211 13.0991C210.05 13.1332 209.925 13.2581 209.89 13.4183L208.458 20.024C208.363 20.4618 207.738 20.4618 207.643 20.024L206.211 13.4183C206.176 13.2581 206.051 13.1332 205.89 13.0991L199.238 11.6844Z" fill="#C4CBF5"/>
<path d="M18.3835 158.981C18.5533 158.179 19.6986 158.179 19.8684 158.981L22.4054 170.967C22.4672 171.259 22.6946 171.487 22.9863 171.551L34.848 174.135C35.6445 174.308 35.6445 175.445 34.848 175.618L22.9863 178.202C22.6946 178.266 22.4672 178.494 22.4054 178.786L19.8684 190.772C19.6986 191.574 18.5533 191.574 18.3835 190.772L15.8465 178.786C15.7847 178.494 15.5573 178.266 15.2656 178.202L3.4039 175.618C2.60738 175.445 2.60738 174.308 3.4039 174.135L15.2656 171.551C15.5573 171.487 15.7847 171.259 15.8465 170.967L18.3835 158.981Z" fill="#C4CBF5"/>
<path d="M297.003 52.7311C297.173 51.9288 298.318 51.9288 298.488 52.7311L299.968 59.7231C300.03 60.0153 300.257 60.244 300.549 60.3075L307.489 61.8193C308.285 61.9928 308.285 63.1289 307.489 63.3024L300.549 64.8142C300.257 64.8777 300.03 65.1064 299.968 65.3986L298.488 72.3906C298.318 73.193 297.173 73.1929 297.003 72.3906L295.523 65.3986C295.461 65.1064 295.234 64.8777 294.942 64.8142L288.003 63.3024C287.206 63.1289 287.206 61.9928 288.003 61.8193L294.942 60.3075C295.234 60.244 295.461 60.0153 295.523 59.7231L297.003 52.7311Z" fill="#C4CBF5"/>
<path d="M327.598 164.832L329.922 175.811L340.745 178.169L329.922 180.527L327.598 191.506L325.274 180.527L314.451 178.169L325.274 175.811L327.598 164.832Z" fill="white"/>
<rect x="175.196" y="62.8012" width="136.765" height="147.238" rx="7.96266" transform="rotate(10 175.196 62.8012)" fill="white" stroke="#C4CBF5" stroke-width="3.03571"/>
<rect x="181.73" y="72.1337" width="119.848" height="104.541" rx="7.96266" transform="rotate(10 181.73 72.1337)" fill="#F1F3FF" stroke="#F1F3FF" stroke-width="3.03571"/>
<rect x="43.018" y="86.5503" width="136.765" height="147.238" rx="7.96266" transform="rotate(-10 43.018 86.5503)" fill="white" stroke="#C4CBF5" stroke-width="3.03571"/>
<rect x="52.35" y="93.0857" width="119.848" height="104.541" rx="7.96266" transform="rotate(-10 52.35 93.0857)" fill="#F1F3FF" stroke="#F1F3FF" stroke-width="3.03571"/>
<rect x="99.1247" y="50.7409" width="163.12" height="175.656" rx="9.23274" fill="white" stroke="#C4CBF5" stroke-width="3.03571"/>
<rect x="108.768" y="60.3845" width="142.868" height="124.545" rx="9.23274" fill="#F1F3FF" stroke="#C4CBF5" stroke-width="3.03571"/>
<circle cx="198.54" cy="90.1874" r="11.276" fill="white"/>
<path d="M212.83 113.207C213.574 112.035 215.284 112.035 216.028 113.207L240.546 151.812C241.347 153.073 240.441 154.722 238.947 154.722H189.911C188.417 154.722 187.512 153.073 188.312 151.812L212.83 113.207Z" fill="#C4CBF5"/>
<path d="M157.406 88.5092C157.548 88.2687 157.894 88.2636 158.042 88.4998L198.543 152.907C198.699 153.155 198.521 153.477 198.228 153.477H119.837C119.549 153.477 119.37 153.164 119.516 152.916L157.406 88.5092Z" fill="#DDE2FF" stroke="#DDE2FF" stroke-width="3.03571"/>
<path d="M156.942 85.2021C157.244 84.677 157.997 84.666 158.314 85.1821L169.166 102.871C169.619 103.608 168.738 104.437 168.029 103.941L164.739 101.638C164.457 101.441 164.079 101.447 163.803 101.654L159.114 105.171C158.882 105.344 158.575 105.379 158.311 105.262L152.849 102.834C152.641 102.742 152.403 102.743 152.195 102.837L147.178 105.118C146.472 105.438 145.77 104.666 146.156 103.994L156.942 85.2021Z" fill="white"/>
<path d="M215.249 110.529C215.026 110.139 214.466 110.131 214.232 110.514L206.18 123.638C205.844 124.185 206.498 124.8 207.023 124.432L209.436 122.744C209.659 122.588 209.96 122.604 210.165 122.783L213.603 125.791C213.791 125.956 214.062 125.985 214.28 125.863L218.268 123.648C218.432 123.557 218.63 123.549 218.801 123.626L222.494 125.305C223.017 125.543 223.538 124.97 223.252 124.472L215.249 110.529Z" fill="white"/>
<path d="M131.909 161.944H169.325" stroke="#DDE2FF" stroke-width="3.03571" stroke-linecap="round"/>
<path d="M111.562 154.714H250.445" stroke="#C4CBF5" stroke-width="3.03571" stroke-linecap="square"/>
<path d="M159.071 167.838H183.166" stroke="#DDE2FF" stroke-width="3.03571" stroke-linecap="round"/>
<path d="M141.135 168.094H155.486" stroke="#DDE2FF" stroke-width="3.03571" stroke-linecap="round"/>
<path d="M206.741 162.457H218.53" stroke="#DDE2FF" stroke-width="3.03571" stroke-linecap="round"/>
</g>
</svg>
