<svg width="32" height="32" viewBox="0 0 32 32" fill="none" xmlns="http://www.w3.org/2000/svg">
<path d="M16.0782 10.3549L14.0886 7.5307C11.9028 4.42733 11.7643 4.35267 10.3095 5.49024C9.41353 6.1911 9.65724 6.76522 12.5926 10.87L15.8788 15.4661L19.0166 11.6223C22.2455 7.66623 22.8794 5.75126 21.1803 5.08679C19.6197 4.47628 19.0769 4.63753 19.0769 5.71361C19.0769 6.26765 18.4018 7.53823 17.5772 8.53776L16.0782 10.3549Z" fill="url(#paint0_linear_117_10612)"/>
<path d="M13.5052 16.7329C13.4868 16.5026 12.4486 14.7884 11.1975 12.9249C9.94647 11.0607 8.33784 9.14576 7.62215 8.66952C6.44984 7.88898 6.224 7.95423 5.34215 9.32646C4.43077 10.7451 4.44185 10.87 5.504 11.153C6.83569 11.5081 8.87938 14.4295 8.37662 15.259C8.18708 15.5721 6.77846 16.1857 5.24677 16.6231C2.94646 17.2794 2.46154 17.6766 2.46154 18.9051C2.46154 19.7227 2.80678 20.3922 3.22893 20.3922C4.51939 20.3922 13.5409 17.1796 13.5052 16.7329Z" fill="url(#paint1_linear_117_10612)"/>
<path d="M23.3846 15.5665C23.3846 15.4115 24.2055 14.0687 25.2086 12.5817C26.9692 9.97336 26.9932 9.84285 25.9009 8.83517C24.8265 7.84317 24.608 8.01321 21.5298 12.2472C19.7458 14.7006 18.536 16.9243 18.8369 17.1953C20.0338 18.2701 26.4406 20.4813 27.7926 20.2861C28.8535 20.133 29.2831 19.611 29.4308 18.2959C29.6074 16.7235 29.4751 16.5635 28.3089 16.9412C27.1274 17.3233 23.3846 16.2786 23.3846 15.5665Z" fill="url(#paint2_linear_117_10612)"/>
<path d="M13.2308 31.0588C14.7575 31.0588 14.7692 31.0168 14.7692 25.4118C14.7692 19.0532 15.0757 19.3155 9.5317 20.9343C5.00309 22.2576 4.30769 22.6748 4.30769 24.0684C4.30769 26.1465 5.5883 26.7175 7.25353 25.3823C8.09415 24.7084 9.43631 24.1569 10.2369 24.1569C11.5908 24.1569 11.6923 24.3978 11.6923 27.6078C11.6923 30.8706 11.776 31.0588 13.2308 31.0588Z" fill="url(#paint3_linear_117_10612)"/>
<path d="M27.5698 24.4298C28.1852 23.2201 27.8935 23.0231 23.1545 21.4494C20.3637 20.5227 17.9292 19.7647 17.744 19.7647C17.0308 19.7647 16.6111 28.6237 17.2659 29.8704C18.048 31.3612 20.7852 31.2891 20.3409 29.7889C19.9895 28.6023 20.1317 24.7542 20.5428 24.3357C20.7151 24.1594 22.1643 24.47 23.7631 25.0259C25.3618 25.5812 26.7243 25.9658 26.7902 25.8805C26.856 25.7951 27.2068 25.1426 27.5698 24.4298Z" fill="url(#paint4_linear_117_10612)"/>
<path d="M17.8462 2.82351C17.8462 3.8631 17.0196 4.70586 16 4.70586C14.9804 4.70586 14.1538 3.8631 14.1538 2.82351C14.1538 1.78392 14.9804 0.941162 16 0.941162C17.0196 0.941162 17.8462 1.78392 17.8462 2.82351Z" fill="url(#paint5_linear_117_10612)"/>
<path d="M32 12.8627C32 13.9023 31.1735 14.7451 30.1538 14.7451C29.1342 14.7451 28.3077 13.9023 28.3077 12.8627C28.3077 11.8231 29.1342 10.9804 30.1538 10.9804C31.1735 10.9804 32 11.8231 32 12.8627Z" fill="url(#paint6_linear_117_10612)"/>
<path d="M25.8462 29.1764C25.8462 30.216 25.0196 31.0588 24 31.0588C22.9804 31.0588 22.1538 30.216 22.1538 29.1764C22.1538 28.1368 22.9804 27.2941 24 27.2941C25.0196 27.2941 25.8462 28.1368 25.8462 29.1764Z" fill="url(#paint7_linear_117_10612)"/>
<path d="M9.84615 29.1764C9.84615 30.216 9.0196 31.0588 8 31.0588C6.9804 31.0588 6.15385 30.216 6.15385 29.1764C6.15385 28.1368 6.9804 27.2941 8 27.2941C9.0196 27.2941 9.84615 28.1368 9.84615 29.1764Z" fill="url(#paint8_linear_117_10612)"/>
<path d="M3.69231 13.4902C3.69231 14.5297 2.86576 15.3725 1.84615 15.3725C0.826551 15.3725 0 14.5297 0 13.4902C0 12.4506 0.826551 11.6078 1.84615 11.6078C2.86576 11.6078 3.69231 12.4506 3.69231 13.4902Z" fill="url(#paint9_linear_117_10612)"/>
<defs>
<linearGradient id="paint0_linear_117_10612" x1="3.57628e-07" y1="31.0588" x2="33.5518" y2="29.2175" gradientUnits="userSpaceOnUse">
<stop stop-color="#FF600E"/>
<stop offset="1" stop-color="#FF8F4C"/>
</linearGradient>
<linearGradient id="paint1_linear_117_10612" x1="3.57628e-07" y1="31.0588" x2="33.5518" y2="29.2175" gradientUnits="userSpaceOnUse">
<stop stop-color="#FF600E"/>
<stop offset="1" stop-color="#FF8F4C"/>
</linearGradient>
<linearGradient id="paint2_linear_117_10612" x1="3.57628e-07" y1="31.0588" x2="33.5518" y2="29.2175" gradientUnits="userSpaceOnUse">
<stop stop-color="#FF600E"/>
<stop offset="1" stop-color="#FF8F4C"/>
</linearGradient>
<linearGradient id="paint3_linear_117_10612" x1="3.57628e-07" y1="31.0588" x2="33.5518" y2="29.2175" gradientUnits="userSpaceOnUse">
<stop stop-color="#FF600E"/>
<stop offset="1" stop-color="#FF8F4C"/>
</linearGradient>
<linearGradient id="paint4_linear_117_10612" x1="3.57628e-07" y1="31.0588" x2="33.5518" y2="29.2175" gradientUnits="userSpaceOnUse">
<stop stop-color="#FF600E"/>
<stop offset="1" stop-color="#FF8F4C"/>
</linearGradient>
<linearGradient id="paint5_linear_117_10612" x1="3.57628e-07" y1="31.0588" x2="33.5518" y2="29.2175" gradientUnits="userSpaceOnUse">
<stop stop-color="#FF600E"/>
<stop offset="1" stop-color="#FF8F4C"/>
</linearGradient>
<linearGradient id="paint6_linear_117_10612" x1="3.57628e-07" y1="31.0588" x2="33.5518" y2="29.2175" gradientUnits="userSpaceOnUse">
<stop stop-color="#FF600E"/>
<stop offset="1" stop-color="#FF8F4C"/>
</linearGradient>
<linearGradient id="paint7_linear_117_10612" x1="3.57628e-07" y1="31.0588" x2="33.5518" y2="29.2175" gradientUnits="userSpaceOnUse">
<stop stop-color="#FF600E"/>
<stop offset="1" stop-color="#FF8F4C"/>
</linearGradient>
<linearGradient id="paint8_linear_117_10612" x1="3.57628e-07" y1="31.0588" x2="33.5518" y2="29.2175" gradientUnits="userSpaceOnUse">
<stop stop-color="#FF600E"/>
<stop offset="1" stop-color="#FF8F4C"/>
</linearGradient>
<linearGradient id="paint9_linear_117_10612" x1="3.57628e-07" y1="31.0588" x2="33.5518" y2="29.2175" gradientUnits="userSpaceOnUse">
<stop stop-color="#FF600E"/>
<stop offset="1" stop-color="#FF8F4C"/>
</linearGradient>
</defs>
</svg>
